<?xml version="1.0" encoding="UTF-8" standalone="no"?>
<!DOCTYPE svg PUBLIC "-//W3C//DTD SVG 1.1//EN"
 "http://www.w3.org/Graphics/SVG/1.1/DTD/svg11.dtd">
<!-- Generated by graphviz version 2.43.0 (0)
 -->
<!-- Title: modelo_juego Pages: 1 -->
<svg width="599pt" height="1792pt"
 viewBox="0.00 0.00 599.00 1792.00" xmlns="http://www.w3.org/2000/svg" xmlns:xlink="http://www.w3.org/1999/xlink">
<g id="graph0" class="graph" transform="scale(1 1) rotate(0) translate(4 1788)">
<title>modelo_juego</title>
<polygon fill="white" stroke="transparent" points="-4,4 -4,-1788 595,-1788 595,4 -4,4"/>
<!-- TipoCelda -->
<g id="node1" class="node">
<title>TipoCelda</title>
<polygon fill="#ffe6e6" stroke="black" points="337,-619.5 272,-619.5 272,-534.5 337,-534.5 337,-619.5"/>
<text text-anchor="middle" x="304.5" y="-607.5" font-family="Arial" font-size="10.00">&lt;&lt;enum&gt;&gt;</text>
<text text-anchor="middle" x="304.5" y="-596.5" font-family="Arial" font-size="10.00">TipoCelda</text>
<text text-anchor="middle" x="304.5" y="-585.5" font-family="Arial" font-size="10.00">&#45;&#45;&#45;</text>
<text text-anchor="middle" x="304.5" y="-574.5" font-family="Arial" font-size="10.00">VACIA</text>
<text text-anchor="middle" x="304.5" y="-563.5" font-family="Arial" font-size="10.00">PUERTA</text>
<text text-anchor="middle" x="304.5" y="-552.5" font-family="Arial" font-size="10.00">TRAMPA</text>
<text text-anchor="middle" x="304.5" y="-541.5" font-family="Arial" font-size="10.00">PARED</text>
</g>
<!-- Celda -->
<g id="node2" class="node">
<title>Celda</title>
<polygon fill="#f0f0f0" stroke="black" points="372,-932 237,-932 237,-693 372,-693 372,-932"/>
<text text-anchor="middle" x="304.5" y="-920" font-family="Arial" font-size="10.00">Celda</text>
<text text-anchor="middle" x="304.5" y="-909" font-family="Arial" font-size="10.00">&#45;&#45;&#45;</text>
<text text-anchor="middle" x="304.5" y="-898" font-family="Arial" font-size="10.00">&#45; fila: int</text>
<text text-anchor="middle" x="304.5" y="-887" font-family="Arial" font-size="10.00">&#45; columna: int</text>
<text text-anchor="middle" x="304.5" y="-876" font-family="Arial" font-size="10.00">&#45; entidad: Entidad</text>
<text text-anchor="middle" x="304.5" y="-865" font-family="Arial" font-size="10.00">&#45; objeto: Objeto</text>
<text text-anchor="middle" x="304.5" y="-854" font-family="Arial" font-size="10.00">&#45; tipo: TipoCelda</text>
<text text-anchor="middle" x="304.5" y="-843" font-family="Arial" font-size="10.00">&#45;&#45;&#45;</text>
<text text-anchor="middle" x="304.5" y="-832" font-family="Arial" font-size="10.00">+ Celda(fila, columna)</text>
<text text-anchor="middle" x="304.5" y="-821" font-family="Arial" font-size="10.00">+ getFila(): int</text>
<text text-anchor="middle" x="304.5" y="-810" font-family="Arial" font-size="10.00">+ getColumna(): int</text>
<text text-anchor="middle" x="304.5" y="-799" font-family="Arial" font-size="10.00">+ getEntidad(): Entidad</text>
<text text-anchor="middle" x="304.5" y="-788" font-family="Arial" font-size="10.00">+ setEntidad(Entidad): void</text>
<text text-anchor="middle" x="304.5" y="-777" font-family="Arial" font-size="10.00">+ getObjeto(): Objeto</text>
<text text-anchor="middle" x="304.5" y="-766" font-family="Arial" font-size="10.00">+ setObjeto(Objeto): void</text>
<text text-anchor="middle" x="304.5" y="-755" font-family="Arial" font-size="10.00">+ getTipo(): TipoCelda</text>
<text text-anchor="middle" x="304.5" y="-744" font-family="Arial" font-size="10.00">+ setTipo(TipoCelda): void</text>
<text text-anchor="middle" x="304.5" y="-733" font-family="Arial" font-size="10.00">+ estaVacia(): boolean</text>
<text text-anchor="middle" x="304.5" y="-722" font-family="Arial" font-size="10.00">+ tienePuerta(): boolean</text>
<text text-anchor="middle" x="304.5" y="-711" font-family="Arial" font-size="10.00">+ tieneTrampa(): boolean</text>
<text text-anchor="middle" x="304.5" y="-700" font-family="Arial" font-size="10.00">+ limpiar(): void</text>
</g>
<!-- Celda&#45;&gt;TipoCelda -->
<g id="edge1" class="edge">
<title>Celda&#45;&gt;TipoCelda</title>
<path fill="none" stroke="black" d="M304.5,-692.7C304.5,-670.55 304.5,-648.5 304.5,-629.74"/>
<polygon fill="black" stroke="black" points="308,-629.67 304.5,-619.67 301,-629.67 308,-629.67"/>
<text text-anchor="middle" x="312.5" y="-667.8" font-family="Arial" font-size="9.00">usa</text>
</g>
<!-- Entidad -->
<g id="node8" class="node">
<title>Entidad</title>
<polygon fill="#e6ffe6" stroke="black" points="504,-647 355,-647 355,-507 504,-507 504,-647"/>
<text text-anchor="middle" x="429.5" y="-635" font-family="Arial" font-size="10.00">&lt;&lt;abstract&gt;&gt;</text>
<text text-anchor="middle" x="429.5" y="-624" font-family="Arial" font-size="10.00">Entidad</text>
<text text-anchor="middle" x="429.5" y="-613" font-family="Arial" font-size="10.00">&#45;&#45;&#45;</text>
<text text-anchor="middle" x="429.5" y="-602" font-family="Arial" font-size="10.00">&#45; vida: int</text>
<text text-anchor="middle" x="429.5" y="-591" font-family="Arial" font-size="10.00">&#45; ataque: int</text>
<text text-anchor="middle" x="429.5" y="-580" font-family="Arial" font-size="10.00">&#45; defensa: int</text>
<text text-anchor="middle" x="429.5" y="-569" font-family="Arial" font-size="10.00">&#45; velocidad: int</text>
<text text-anchor="middle" x="429.5" y="-558" font-family="Arial" font-size="10.00">&#45; fila: int</text>
<text text-anchor="middle" x="429.5" y="-547" font-family="Arial" font-size="10.00">&#45; columna: int</text>
<text text-anchor="middle" x="429.5" y="-536" font-family="Arial" font-size="10.00">&#45;&#45;&#45;</text>
<text text-anchor="middle" x="429.5" y="-525" font-family="Arial" font-size="10.00">+ atacar(): int</text>
<text text-anchor="middle" x="429.5" y="-514" font-family="Arial" font-size="10.00">+ moverse(fila, columna): void</text>
</g>
<!-- Celda&#45;&gt;Entidad -->
<g id="edge2" class="edge">
<title>Celda&#45;&gt;Entidad</title>
<path fill="none" stroke="black" d="M368.1,-692.7C374.73,-680.31 381.35,-667.95 387.65,-656.18"/>
<polygon fill="black" stroke="black" points="390.77,-657.77 392.4,-647.3 384.59,-654.47 390.77,-657.77"/>
<text text-anchor="middle" x="400.5" y="-667.8" font-family="Arial" font-size="9.00">contiene</text>
</g>
<!-- Objeto -->
<g id="node11" class="node">
<title>Objeto</title>
<polygon fill="#ffffe6" stroke="black" points="467,-167 360,-167 360,-82 467,-82 467,-167"/>
<text text-anchor="middle" x="413.5" y="-155" font-family="Arial" font-size="10.00">&lt;&lt;abstract&gt;&gt;</text>
<text text-anchor="middle" x="413.5" y="-144" font-family="Arial" font-size="10.00">Objeto</text>
<text text-anchor="middle" x="413.5" y="-133" font-family="Arial" font-size="10.00">&#45;&#45;&#45;</text>
<text text-anchor="middle" x="413.5" y="-122" font-family="Arial" font-size="10.00">&#45; nombre: String</text>
<text text-anchor="middle" x="413.5" y="-111" font-family="Arial" font-size="10.00">&#45; descripcion: String</text>
<text text-anchor="middle" x="413.5" y="-100" font-family="Arial" font-size="10.00">&#45;&#45;&#45;</text>
<text text-anchor="middle" x="413.5" y="-89" font-family="Arial" font-size="10.00">+ usar(Entidad): void</text>
</g>
<!-- Celda&#45;&gt;Objeto -->
<g id="edge3" class="edge">
<title>Celda&#45;&gt;Objeto</title>
<path fill="none" stroke="black" d="M260.35,-692.81C250.29,-656.48 242.5,-616.06 242.5,-578 242.5,-578 242.5,-578 242.5,-275.5 242.5,-215.96 301.82,-174.52 350.59,-150.51"/>
<polygon fill="black" stroke="black" points="352.34,-153.55 359.86,-146.09 349.33,-147.23 352.34,-153.55"/>
<text text-anchor="middle" x="260.5" y="-416.3" font-family="Arial" font-size="9.00">contiene</text>
</g>
<!-- MatrizHabitacion -->
<g id="node3" class="node">
<title>MatrizHabitacion</title>
<polygon fill="#f0f0f0" stroke="black" points="411.5,-1172 197.5,-1172 197.5,-988 411.5,-988 411.5,-1172"/>
<text text-anchor="middle" x="304.5" y="-1160" font-family="Arial" font-size="10.00">MatrizHabitacion</text>
<text text-anchor="middle" x="304.5" y="-1149" font-family="Arial" font-size="10.00">&#45;&#45;&#45;</text>
<text text-anchor="middle" x="304.5" y="-1138" font-family="Arial" font-size="10.00">&#45; filas: LSE[LSE[Celda]]</text>
<text text-anchor="middle" x="304.5" y="-1127" font-family="Arial" font-size="10.00">&#45; numFilas: int</text>
<text text-anchor="middle" x="304.5" y="-1116" font-family="Arial" font-size="10.00">&#45; numColumnas: int</text>
<text text-anchor="middle" x="304.5" y="-1105" font-family="Arial" font-size="10.00">&#45;&#45;&#45;</text>
<text text-anchor="middle" x="304.5" y="-1094" font-family="Arial" font-size="10.00">+ MatrizHabitacion(numFilas, numColumnas)</text>
<text text-anchor="middle" x="304.5" y="-1083" font-family="Arial" font-size="10.00">+ getCelda(fila, columna): Celda</text>
<text text-anchor="middle" x="304.5" y="-1072" font-family="Arial" font-size="10.00">+ setCelda(fila, columna, celda): void</text>
<text text-anchor="middle" x="304.5" y="-1061" font-family="Arial" font-size="10.00">+ getNumFilas(): int</text>
<text text-anchor="middle" x="304.5" y="-1050" font-family="Arial" font-size="10.00">+ getNumColumnas(): int</text>
<text text-anchor="middle" x="304.5" y="-1039" font-family="Arial" font-size="10.00">+ obtenerCeldasAlcanzables(...): LSE</text>
<text text-anchor="middle" x="304.5" y="-1028" font-family="Arial" font-size="10.00">+ obtenerCeldasConEnemigos(): LSE</text>
<text text-anchor="middle" x="304.5" y="-1017" font-family="Arial" font-size="10.00">+ obtenerCeldasConObjetos(): LSE</text>
<text text-anchor="middle" x="304.5" y="-1006" font-family="Arial" font-size="10.00">+ obtenerCeldasConPuertas(): LSE</text>
<text text-anchor="middle" x="304.5" y="-995" font-family="Arial" font-size="10.00">+ limpiar(): void</text>
</g>
<!-- MatrizHabitacion&#45;&gt;Celda -->
<g id="edge4" class="edge">
<title>MatrizHabitacion&#45;&gt;Celda</title>
<path fill="none" stroke="black" d="M304.5,-987.63C304.5,-972.99 304.5,-957.6 304.5,-942.28"/>
<polygon fill="black" stroke="black" points="308,-942.23 304.5,-932.23 301,-942.23 308,-942.23"/>
<text text-anchor="middle" x="339" y="-962.8" font-family="Arial" font-size="9.00">contiene</text>
<text text-anchor="middle" x="339" y="-952.8" font-family="Arial" font-size="9.00">LSE[LSE[Celda]]</text>
</g>
<!-- Puerta -->
<g id="node4" class="node">
<title>Puerta</title>
<polygon fill="#f0f0f0" stroke="black" points="179,-1150 0,-1150 0,-1010 179,-1010 179,-1150"/>
<text text-anchor="middle" x="89.5" y="-1138" font-family="Arial" font-size="10.00">Puerta</text>
<text text-anchor="middle" x="89.5" y="-1127" font-family="Arial" font-size="10.00">&#45;&#45;&#45;</text>
<text text-anchor="middle" x="89.5" y="-1116" font-family="Arial" font-size="10.00">&#45; habitacionDestino: int</text>
<text text-anchor="middle" x="89.5" y="-1105" font-family="Arial" font-size="10.00">&#45; etiqueta: String</text>
<text text-anchor="middle" x="89.5" y="-1094" font-family="Arial" font-size="10.00">&#45; abierta: boolean</text>
<text text-anchor="middle" x="89.5" y="-1083" font-family="Arial" font-size="10.00">&#45;&#45;&#45;</text>
<text text-anchor="middle" x="89.5" y="-1072" font-family="Arial" font-size="10.00">+ Puerta(habitacionDestino, etiqueta)</text>
<text text-anchor="middle" x="89.5" y="-1061" font-family="Arial" font-size="10.00">+ getHabitacionDestino(): int</text>
<text text-anchor="middle" x="89.5" y="-1050" font-family="Arial" font-size="10.00">+ getEtiqueta(): String</text>
<text text-anchor="middle" x="89.5" y="-1039" font-family="Arial" font-size="10.00">+ estaAbierta(): boolean</text>
<text text-anchor="middle" x="89.5" y="-1028" font-family="Arial" font-size="10.00">+ abrir(): void</text>
<text text-anchor="middle" x="89.5" y="-1017" font-family="Arial" font-size="10.00">+ cerrar(): void</text>
</g>
<!-- Habitacion -->
<g id="node5" class="node">
<title>Habitacion</title>
<polygon fill="#f0f0f0" stroke="black" points="424,-1522 185,-1522 185,-1228 424,-1228 424,-1522"/>
<text text-anchor="middle" x="304.5" y="-1510" font-family="Arial" font-size="10.00">Habitacion</text>
<text text-anchor="middle" x="304.5" y="-1499" font-family="Arial" font-size="10.00">&#45;&#45;&#45;</text>
<text text-anchor="middle" x="304.5" y="-1488" font-family="Arial" font-size="10.00">&#45; id: int</text>
<text text-anchor="middle" x="304.5" y="-1477" font-family="Arial" font-size="10.00">&#45; nombre: String</text>
<text text-anchor="middle" x="304.5" y="-1466" font-family="Arial" font-size="10.00">&#45; matriz: MatrizHabitacion</text>
<text text-anchor="middle" x="304.5" y="-1455" font-family="Arial" font-size="10.00">&#45; puertas: LSE[Puerta]</text>
<text text-anchor="middle" x="304.5" y="-1444" font-family="Arial" font-size="10.00">&#45; turnsLimit: int</text>
<text text-anchor="middle" x="304.5" y="-1433" font-family="Arial" font-size="10.00">&#45; esExterior: boolean</text>
<text text-anchor="middle" x="304.5" y="-1422" font-family="Arial" font-size="10.00">&#45; visitada: boolean</text>
<text text-anchor="middle" x="304.5" y="-1411" font-family="Arial" font-size="10.00">&#45;&#45;&#45;</text>
<text text-anchor="middle" x="304.5" y="-1400" font-family="Arial" font-size="10.00">+ Habitacion(id, nombre, numFilas, numColumnas)</text>
<text text-anchor="middle" x="304.5" y="-1389" font-family="Arial" font-size="10.00">+ getId(): int</text>
<text text-anchor="middle" x="304.5" y="-1378" font-family="Arial" font-size="10.00">+ getNombre(): String</text>
<text text-anchor="middle" x="304.5" y="-1367" font-family="Arial" font-size="10.00">+ getMatriz(): MatrizHabitacion</text>
<text text-anchor="middle" x="304.5" y="-1356" font-family="Arial" font-size="10.00">+ getPuertas(): LSE</text>
<text text-anchor="middle" x="304.5" y="-1345" font-family="Arial" font-size="10.00">+ agregarPuerta(Puerta): void</text>
<text text-anchor="middle" x="304.5" y="-1334" font-family="Arial" font-size="10.00">+ obtenerPuerta(destino): Puerta</text>
<text text-anchor="middle" x="304.5" y="-1323" font-family="Arial" font-size="10.00">+ getTurnsLimit(): int</text>
<text text-anchor="middle" x="304.5" y="-1312" font-family="Arial" font-size="10.00">+ setTurnsLimit(int): void</text>
<text text-anchor="middle" x="304.5" y="-1301" font-family="Arial" font-size="10.00">+ esExterior(): boolean</text>
<text text-anchor="middle" x="304.5" y="-1290" font-family="Arial" font-size="10.00">+ setExterior(boolean): void</text>
<text text-anchor="middle" x="304.5" y="-1279" font-family="Arial" font-size="10.00">+ estaVisitada(): boolean</text>
<text text-anchor="middle" x="304.5" y="-1268" font-family="Arial" font-size="10.00">+ marcarVisitada(): void</text>
<text text-anchor="middle" x="304.5" y="-1257" font-family="Arial" font-size="10.00">+ obtenerEnemigos(): LSE</text>
<text text-anchor="middle" x="304.5" y="-1246" font-family="Arial" font-size="10.00">+ obtenerObjetos(): LSE</text>
<text text-anchor="middle" x="304.5" y="-1235" font-family="Arial" font-size="10.00">+ limpiar(): void</text>
</g>
<!-- Puerta&#45;&gt;Habitacion -->
<g id="edge11" class="edge">
<title>Puerta&#45;&gt;Habitacion</title>
<path fill="none" stroke="black" d="M164.93,-1150.23C177.11,-1162.92 189.11,-1176.45 199.5,-1190 206.67,-1199.35 213.69,-1209.24 220.48,-1219.39"/>
<polygon fill="black" stroke="black" points="217.71,-1221.54 226.14,-1227.97 223.56,-1217.69 217.71,-1221.54"/>
<text text-anchor="middle" x="233.5" y="-1197.8" font-family="Arial" font-size="9.00">conecta a</text>
</g>
<!-- Habitacion&#45;&gt;MatrizHabitacion -->
<g id="edge5" class="edge">
<title>Habitacion&#45;&gt;MatrizHabitacion</title>
<path fill="none" stroke="black" d="M304.5,-1227.93C304.5,-1212.56 304.5,-1197.18 304.5,-1182.47"/>
<polygon fill="black" stroke="black" points="308,-1182.4 304.5,-1172.4 301,-1182.4 308,-1182.4"/>
<text text-anchor="middle" x="322.5" y="-1197.8" font-family="Arial" font-size="9.00">contiene</text>
</g>
<!-- Habitacion&#45;&gt;Puerta -->
<g id="edge6" class="edge">
<title>Habitacion&#45;&gt;Puerta</title>
<path fill="none" stroke="black" d="M184.83,-1254.89C172.56,-1240.3 160.83,-1225.17 150.5,-1210 139.91,-1194.45 130.24,-1176.78 121.87,-1159.6"/>
<polygon fill="black" stroke="black" points="124.81,-1157.65 117.35,-1150.13 118.5,-1160.67 124.81,-1157.65"/>
<text text-anchor="middle" x="175" y="-1202.8" font-family="Arial" font-size="9.00">contiene</text>
<text text-anchor="middle" x="175" y="-1192.8" font-family="Arial" font-size="9.00">LSE[Puerta]</text>
</g>
<!-- Habitacion&#45;&gt;Entidad -->
<g id="edge7" class="edge">
<title>Habitacion&#45;&gt;Entidad</title>
<path fill="none" stroke="black" d="M399.47,-1228C407.99,-1209.71 415.33,-1190.81 420.5,-1172 469.58,-993.41 454.23,-773.08 440.69,-657.45"/>
<polygon fill="black" stroke="black" points="444.14,-656.78 439.48,-647.27 437.19,-657.62 444.14,-656.78"/>
<text text-anchor="middle" x="470.5" y="-957.8" font-family="Arial" font-size="9.00">contiene</text>
</g>
<!-- Habitacion&#45;&gt;Objeto -->
<g id="edge8" class="edge">
<title>Habitacion&#45;&gt;Objeto</title>
<path fill="none" stroke="black" d="M424.07,-1232.84C482.12,-1162.98 539.5,-1091.31 539.5,-1081 539.5,-1081 539.5,-1081 539.5,-275.5 539.5,-231.45 507.25,-193.58 475.38,-166.9"/>
<polygon fill="black" stroke="black" points="477.28,-163.94 467.3,-160.37 472.87,-169.38 477.28,-163.94"/>
<text text-anchor="middle" x="557.5" y="-574.8" font-family="Arial" font-size="9.00">contiene</text>
</g>
<!-- GrafoHabitaciones -->
<g id="node6" class="node">
<title>GrafoHabitaciones</title>
<polygon fill="#f0f0f0" stroke="black" points="519.5,-1784 301.5,-1784 301.5,-1578 519.5,-1578 519.5,-1784"/>
<text text-anchor="middle" x="410.5" y="-1772" font-family="Arial" font-size="10.00">GrafoHabitaciones</text>
<text text-anchor="middle" x="410.5" y="-1761" font-family="Arial" font-size="10.00">&#45;&#45;&#45;</text>
<text text-anchor="middle" x="410.5" y="-1750" font-family="Arial" font-size="10.00">&#45; grafo: Grafo</text>
<text text-anchor="middle" x="410.5" y="-1739" font-family="Arial" font-size="10.00">&#45; habitaciones: LSE[Habitacion]</text>
<text text-anchor="middle" x="410.5" y="-1728" font-family="Arial" font-size="10.00">&#45; habitacionActual: Habitacion</text>
<text text-anchor="middle" x="410.5" y="-1717" font-family="Arial" font-size="10.00">&#45;&#45;&#45;</text>
<text text-anchor="middle" x="410.5" y="-1706" font-family="Arial" font-size="10.00">+ GrafoHabitaciones()</text>
<text text-anchor="middle" x="410.5" y="-1695" font-family="Arial" font-size="10.00">+ agregarHabitacion(Habitacion): void</text>
<text text-anchor="middle" x="410.5" y="-1684" font-family="Arial" font-size="10.00">+ conectarHabitaciones(h1, h2, etiqueta): void</text>
<text text-anchor="middle" x="410.5" y="-1673" font-family="Arial" font-size="10.00">+ obtenerHabitacion(id): Habitacion</text>
<text text-anchor="middle" x="410.5" y="-1662" font-family="Arial" font-size="10.00">+ obtenerHabitacionActual(): Habitacion</text>
<text text-anchor="middle" x="410.5" y="-1651" font-family="Arial" font-size="10.00">+ cambiarHabitacion(id): void</text>
<text text-anchor="middle" x="410.5" y="-1640" font-family="Arial" font-size="10.00">+ caminoMinimoHabitaciones(...): LSE</text>
<text text-anchor="middle" x="410.5" y="-1629" font-family="Arial" font-size="10.00">+ dijkstraHabitaciones(...): LSE</text>
<text text-anchor="middle" x="410.5" y="-1618" font-family="Arial" font-size="10.00">+ obtenerHabitacionesAdyacentes(id): LSE</text>
<text text-anchor="middle" x="410.5" y="-1607" font-family="Arial" font-size="10.00">+ cargarDesdeJson(ruta): void</text>
<text text-anchor="middle" x="410.5" y="-1596" font-family="Arial" font-size="10.00">+ guardarEnJson(ruta): void</text>
<text text-anchor="middle" x="410.5" y="-1585" font-family="Arial" font-size="10.00">+ obtenerTodasHabitaciones(): LSE</text>
</g>
<!-- GrafoHabitaciones&#45;&gt;Habitacion -->
<g id="edge10" class="edge">
<title>GrafoHabitaciones&#45;&gt;Habitacion</title>
<path fill="none" stroke="black" d="M374.91,-1577.93C369.73,-1563.07 364.3,-1547.5 358.85,-1531.87"/>
<polygon fill="black" stroke="black" points="362.05,-1530.43 355.46,-1522.14 355.45,-1532.74 362.05,-1530.43"/>
<text text-anchor="middle" x="401" y="-1552.8" font-family="Arial" font-size="9.00">contiene</text>
<text text-anchor="middle" x="401" y="-1542.8" font-family="Arial" font-size="9.00">LSE[Habitacion]</text>
</g>
<!-- Grafo -->
<g id="node7" class="node">
<title>Grafo</title>
<polygon fill="#e6f3ff" stroke="black" points="591,-1434 442,-1434 442,-1316 591,-1316 591,-1434"/>
<text text-anchor="middle" x="516.5" y="-1422" font-family="Arial" font-size="10.00">Grafo</text>
<text text-anchor="middle" x="516.5" y="-1411" font-family="Arial" font-size="10.00">&#45;&#45;&#45;</text>
<text text-anchor="middle" x="516.5" y="-1400" font-family="Arial" font-size="10.00">&#45; entradas: LSE</text>
<text text-anchor="middle" x="516.5" y="-1389" font-family="Arial" font-size="10.00">&#45; contador: int</text>
<text text-anchor="middle" x="516.5" y="-1378" font-family="Arial" font-size="10.00">&#45;&#45;&#45;</text>
<text text-anchor="middle" x="516.5" y="-1367" font-family="Arial" font-size="10.00">+ agregarNodo(nombre): void</text>
<text text-anchor="middle" x="516.5" y="-1356" font-family="Arial" font-size="10.00">+ agregarArista(...): void</text>
<text text-anchor="middle" x="516.5" y="-1345" font-family="Arial" font-size="10.00">+ caminoMinimo(...): LSE</text>
<text text-anchor="middle" x="516.5" y="-1334" font-family="Arial" font-size="10.00">+ dijkstra(...): LSE</text>
<text text-anchor="middle" x="516.5" y="-1323" font-family="Arial" font-size="10.00">+ cargarDesdeJson(ruta): void</text>
</g>
<!-- GrafoHabitaciones&#45;&gt;Grafo -->
<g id="edge9" class="edge">
<title>GrafoHabitaciones&#45;&gt;Grafo</title>
<path fill="none" stroke="black" d="M446.09,-1577.93C461.45,-1533.88 479,-1483.54 492.74,-1444.14"/>
<polygon fill="black" stroke="black" points="496.16,-1444.97 496.15,-1434.37 489.55,-1442.66 496.16,-1444.97"/>
<text text-anchor="middle" x="465.5" y="-1547.8" font-family="Arial" font-size="9.00">usa</text>
</g>
<!-- Enemigo -->
<g id="node9" class="node">
<title>Enemigo</title>
<polygon fill="#e6ffe6" stroke="black" points="446,-461 297,-461 297,-376 446,-376 446,-461"/>
<text text-anchor="middle" x="371.5" y="-449" font-family="Arial" font-size="10.00">Enemigo</text>
<text text-anchor="middle" x="371.5" y="-438" font-family="Arial" font-size="10.00">&#45;&#45;&#45;</text>
<text text-anchor="middle" x="371.5" y="-427" font-family="Arial" font-size="10.00">&#45; inteligencia: int</text>
<text text-anchor="middle" x="371.5" y="-416" font-family="Arial" font-size="10.00">&#45;&#45;&#45;</text>
<text text-anchor="middle" x="371.5" y="-405" font-family="Arial" font-size="10.00">+ atacar(): int</text>
<text text-anchor="middle" x="371.5" y="-394" font-family="Arial" font-size="10.00">+ moverse(fila, columna): void</text>
<text text-anchor="middle" x="371.5" y="-383" font-family="Arial" font-size="10.00">+ perseguir(Jugador): void</text>
</g>
<!-- Entidad&#45;&gt;Enemigo -->
<g id="edge12" class="edge">
<title>Entidad&#45;&gt;Enemigo</title>
<path fill="none" stroke="black" stroke-dasharray="5,2" d="M403.89,-506.9C399.39,-494.75 394.77,-482.29 390.49,-470.74"/>
<polygon fill="black" stroke="black" points="393.74,-469.43 386.98,-461.27 387.17,-471.86 393.74,-469.43"/>
<text text-anchor="middle" x="412.5" y="-481.8" font-family="Arial" font-size="9.00">hereda</text>
</g>
<!-- Jugador -->
<g id="node10" class="node">
<title>Jugador</title>
<polygon fill="#e6ffe6" stroke="black" points="497.5,-330 329.5,-330 329.5,-223 497.5,-223 497.5,-330"/>
<text text-anchor="middle" x="413.5" y="-318" font-family="Arial" font-size="10.00">Jugador</text>
<text text-anchor="middle" x="413.5" y="-307" font-family="Arial" font-size="10.00">&#45;&#45;&#45;</text>
<text text-anchor="middle" x="413.5" y="-296" font-family="Arial" font-size="10.00">&#45; inventario: LSE[Objeto]</text>
<text text-anchor="middle" x="413.5" y="-285" font-family="Arial" font-size="10.00">&#45; experiencia: int</text>
<text text-anchor="middle" x="413.5" y="-274" font-family="Arial" font-size="10.00">&#45;&#45;&#45;</text>
<text text-anchor="middle" x="413.5" y="-263" font-family="Arial" font-size="10.00">+ atacar(): int</text>
<text text-anchor="middle" x="413.5" y="-252" font-family="Arial" font-size="10.00">+ moverse(fila, columna): void</text>
<text text-anchor="middle" x="413.5" y="-241" font-family="Arial" font-size="10.00">+ agregarAlInventario(Objeto): void</text>
<text text-anchor="middle" x="413.5" y="-230" font-family="Arial" font-size="10.00">+ usarObjeto(Objeto): void</text>
</g>
<!-- Entidad&#45;&gt;Jugador -->
<g id="edge13" class="edge">
<title>Entidad&#45;&gt;Jugador</title>
<path fill="none" stroke="black" stroke-dasharray="5,2" d="M449.07,-506.64C457.26,-467.97 463.1,-419.06 454.5,-376 452.08,-363.89 448.14,-351.4 443.63,-339.56"/>
<polygon fill="black" stroke="black" points="446.87,-338.22 439.92,-330.22 440.36,-340.81 446.87,-338.22"/>
<text text-anchor="middle" x="474.5" y="-416.3" font-family="Arial" font-size="9.00">hereda</text>
</g>
<!-- Enemigo&#45;&gt;Jugador -->
<g id="edge18" class="edge">
<title>Enemigo&#45;&gt;Jugador</title>
<path fill="none" stroke="black" d="M383.99,-375.87C387.38,-364.55 391.14,-352.04 394.8,-339.84"/>
<polygon fill="black" stroke="black" points="398.18,-340.74 397.7,-330.16 391.48,-338.73 398.18,-340.74"/>
<text text-anchor="middle" x="410" y="-350.8" font-family="Arial" font-size="9.00">persigue</text>
</g>
<!-- Jugador&#45;&gt;Objeto -->
<g id="edge14" class="edge">
<title>Jugador&#45;&gt;Objeto</title>
<path fill="none" stroke="black" d="M413.5,-222.62C413.5,-207.95 413.5,-192.06 413.5,-177.45"/>
<polygon fill="black" stroke="black" points="417,-177.08 413.5,-167.08 410,-177.08 417,-177.08"/>
<text text-anchor="middle" x="438" y="-197.8" font-family="Arial" font-size="9.00">inventario</text>
<text text-anchor="middle" x="438" y="-187.8" font-family="Arial" font-size="9.00">LSE[Objeto]</text>
</g>
<!-- Arma -->
<g id="node12" class="node">
<title>Arma</title>
<polygon fill="#ffffe6" stroke="black" points="368.5,-36 314.5,-36 314.5,0 368.5,0 368.5,-36"/>
<text text-anchor="middle" x="341.5" y="-15.5" font-family="Arial" font-size="10.00">Arma</text>
</g>
<!-- Objeto&#45;&gt;Arma -->
<g id="edge15" class="edge">
<title>Objeto&#45;&gt;Arma</title>
<path fill="none" stroke="black" stroke-dasharray="5,2" d="M384.84,-81.9C376.17,-69.32 366.92,-55.89 359.19,-44.68"/>
<polygon fill="black" stroke="black" points="361.92,-42.47 353.37,-36.22 356.16,-46.44 361.92,-42.47"/>
<text text-anchor="middle" x="386.5" y="-56.8" font-family="Arial" font-size="9.00">hereda</text>
</g>
<!-- Pocion -->
<g id="node13" class="node">
<title>Pocion</title>
<polygon fill="#ffffe6" stroke="black" points="440.5,-36 386.5,-36 386.5,0 440.5,0 440.5,-36"/>
<text text-anchor="middle" x="413.5" y="-15.5" font-family="Arial" font-size="10.00">Pocion</text>
</g>
<!-- Objeto&#45;&gt;Pocion -->
<g id="edge16" class="edge">
<title>Objeto&#45;&gt;Pocion</title>
<path fill="none" stroke="black" stroke-dasharray="5,2" d="M413.5,-81.9C413.5,-69.95 413.5,-57.22 413.5,-46.36"/>
<polygon fill="black" stroke="black" points="417,-46.22 413.5,-36.22 410,-46.22 417,-46.22"/>
<text text-anchor="middle" x="428.5" y="-56.8" font-family="Arial" font-size="9.00">hereda</text>
</g>
<!-- Llave -->
<g id="node14" class="node">
<title>Llave</title>
<polygon fill="#ffffe6" stroke="black" points="512.5,-36 458.5,-36 458.5,0 512.5,0 512.5,-36"/>
<text text-anchor="middle" x="485.5" y="-15.5" font-family="Arial" font-size="10.00">Llave</text>
</g>
<!-- Objeto&#45;&gt;Llave -->
<g id="edge17" class="edge">
<title>Objeto&#45;&gt;Llave</title>
<path fill="none" stroke="black" stroke-dasharray="5,2" d="M442.16,-81.9C450.83,-69.32 460.08,-55.89 467.81,-44.68"/>
<polygon fill="black" stroke="black" points="470.84,-46.44 473.63,-36.22 465.08,-42.47 470.84,-46.44"/>
<text text-anchor="middle" x="475.5" y="-56.8" font-family="Arial" font-size="9.00">hereda</text>
</g>
</g>
</svg>
